<svg width="24" height="28" viewBox="0 0 24 28" fill="none" xmlns="http://www.w3.org/2000/svg">
<path fill-rule="evenodd" clip-rule="evenodd" d="M2.76009 2.71462C3.21017 2.27195 3.82062 2.02326 4.45714 2.02326L22 2V19H4C3.26431 19 2.60611 19.0922 2.01242 19.3456L2.05714 4.38372C2.05714 3.75769 2.31 3.15729 2.76009 2.71462ZM2.00164 22.9507C2.01754 22.643 2.18728 21 4 21H22V26L4.45714 25.9767C3.82062 25.9767 3.21017 25.7281 2.76009 25.2854C2.31 24.8427 2 24.126 2 23.5L2.00164 22.9507ZM24 20V1.01163C24 0.452921 23.5395 0 22.9714 0H4.45714C3.27503 0 2.14134 0.461855 1.30547 1.28396C0.46959 2.10607 0 3.22109 0 4.38372V23V23.6163C0 24.7789 0.46959 25.8939 1.30547 26.716C2.14134 27.5381 3.27503 28 4.45714 28H22.9714C23.5395 28 24 27.5471 24 26.9884V20Z" fill="#335BC3"/>
</svg>
