<svg width="15" height="14" viewBox="0 0 15 14" fill="none" xmlns="http://www.w3.org/2000/svg">
<path d="M6 10H6.5625V9.4375H6V10ZM6 13H5.4375V13.9101L6.25156 13.5031L6 13ZM12 10L12.2516 10.5031L12 9.4375V10ZM1.5625 5.5C1.5625 3.32538 3.32538 1.5625 5.5 1.5625V0.4375C2.70406 0.4375 0.4375 2.70406 0.4375 5.5H1.5625ZM5.5 9.4375C3.32538 9.4375 1.5625 7.67462 1.5625 5.5H0.4375C0.4375 8.29594 2.70406 10.5625 5.5 10.5625V9.4375ZM6 9.4375H5.5V10.5625H6V9.4375ZM6.5625 13V10H5.4375V13H6.5625ZM11.7484 9.49688L5.74844 12.4969L6.25156 13.5031L12.2516 10.5031L11.7484 9.49688ZM9.5 10.5625H12V9.4375H9.5V10.5625ZM13.4375 5.5C13.4375 7.67462 11.6746 9.4375 9.5 9.4375V10.5625C12.2959 10.5625 14.5625 8.29594 14.5625 5.5H13.4375ZM9.5 1.5625C11.6746 1.5625 13.4375 3.32538 13.4375 5.5H14.5625C14.5625 2.70406 12.2959 0.4375 9.5 0.4375V1.5625ZM5.5 1.5625H9.5V0.4375H5.5V1.5625Z" fill="#536471"/>
</svg>
