<svg width="18" height="18" viewBox="0 0 18 18" fill="none" xmlns="http://www.w3.org/2000/svg">
<path d="M8.99991 1.92894L6.17149 4.75736L7.5857 6.17158L10.4141 3.34315C11.5809 2.17642 13.49 2.17642 14.6568 3.34315C15.8235 4.50988 15.8235 6.41906 14.6568 7.58579L11.8283 10.4142L13.2426 11.8284L16.071 9C18.0226 7.04839 18.0226 3.88055 16.071 1.92894C14.1194 -0.0226785 10.9515 -0.0226787 8.99991 1.92894ZM10.4141 11.8284L7.5857 14.6569C6.41897 15.8236 4.50978 15.8236 3.34306 14.6569C2.17633 13.4901 2.17633 11.5809 3.34306 10.4142L6.17149 7.58579L4.75727 6.17158L1.92884 9C-0.0227703 10.9516 -0.0227703 14.1195 1.92884 16.0711C3.88046 18.0227 7.0483 18.0227 8.99991 16.0711L11.8283 13.2426L10.4141 11.8284ZM6.17149 11.8284C5.78096 11.4379 5.78096 10.8047 6.17149 10.4142L10.4141 6.17158C10.8047 5.78105 11.4378 5.78105 11.8283 6.17158C12.2189 6.5621 12.2189 7.19527 11.8283 7.58579L7.5857 11.8284C7.19517 12.219 6.56201 12.219 6.17149 11.8284Z" fill="#858D97"/>
</svg>
