<svg width="18" height="18" viewBox="0 0 18 18" fill="none" xmlns="http://www.w3.org/2000/svg">
<path d="M8.99918 1.92892L6.17075 4.75735L7.58497 6.17156L10.4134 3.34313C11.5801 2.17641 13.4893 2.17641 14.656 3.34313C15.8228 4.50986 15.8228 6.41905 14.656 7.58578L11.8276 10.4142L13.2418 11.8284L16.0702 8.99999C18.0219 7.04837 18.0219 3.88054 16.0702 1.92892C14.1186 -0.0226938 10.9508 -0.0226939 8.99918 1.92892ZM10.4134 11.8284L7.58497 14.6568C6.41824 15.8236 4.50905 15.8236 3.34233 14.6568C2.1756 13.4901 2.1756 11.5809 3.34233 10.4142L6.17075 7.58578L4.75654 6.17156L1.92811 8.99999C-0.0235027 10.9516 -0.0235027 14.1194 1.92811 16.0711C3.87973 18.0227 7.04756 18.0227 8.99918 16.0711L11.8276 13.2426L10.4134 11.8284ZM6.17075 11.8284C5.78023 11.4379 5.78023 10.8047 6.17075 10.4142L10.4134 6.17156C10.8039 5.78104 11.4371 5.78104 11.8276 6.17156C12.2181 6.56209 12.2181 7.19525 11.8276 7.58578L7.58497 11.8284C7.19444 12.2189 6.56128 12.2189 6.17075 11.8284Z" fill="#335BC3"/>
</svg>
