<svg width="24" height="28" viewBox="0 0 24 28" fill="none" xmlns="http://www.w3.org/2000/svg">
<path fill-rule="evenodd" clip-rule="evenodd" d="M24 4C24 6.20914 22.2091 8 20 8C18.9326 8 17.9629 7.58195 17.2457 6.90065L7.81521 12.7947C7.93526 13.175 8 13.58 8 14C8 14.42 7.93526 14.8249 7.81522 15.2053L17.2457 21.0993C17.963 20.418 18.9327 20 20 20C22.2091 20 24 21.7909 24 24C24 26.2091 22.2091 28 20 28C17.7909 28 16 26.2091 16 24C16 23.58 16.0647 23.1751 16.1848 22.7947L6.75429 16.9007C6.03703 17.582 5.06733 18 4 18C1.79086 18 0 16.2091 0 14C0 11.7909 1.79086 10 4 10C5.06732 10 6.037 10.418 6.75426 11.0993L16.1848 5.20522C16.0647 4.82489 16 4.42 16 4C16 1.79086 17.7909 0 20 0C22.2091 0 24 1.79086 24 4ZM22 4C22 5.10457 21.1046 6 20 6C18.8954 6 18 5.10457 18 4C18 2.89543 18.8954 2 20 2C21.1046 2 22 2.89543 22 4ZM4 16C5.10457 16 6 15.1046 6 14C6 12.8954 5.10457 12 4 12C2.89543 12 2 12.8954 2 14C2 15.1046 2.89543 16 4 16ZM20 26C21.1046 26 22 25.1046 22 24C22 22.8954 21.1046 22 20 22C18.8954 22 18 22.8954 18 24C18 25.1046 18.8954 26 20 26Z" fill="#335BC3"/>
</svg>
