<svg width="18" height="18" viewBox="0 0 18 18" fill="none" xmlns="http://www.w3.org/2000/svg">
<path fill-rule="evenodd" clip-rule="evenodd" d="M16 9C16 12.866 12.866 16 9 16C5.13401 16 2 12.866 2 9C2 5.13401 5.13401 2 9 2C12.866 2 16 5.13401 16 9ZM18 9C18 13.9706 13.9706 18 9 18C4.02944 18 0 13.9706 0 9C0 4.02944 4.02944 0 9 0C13.9706 0 18 4.02944 18 9ZM10 5C10 4.44772 9.55228 4 9 4C8.44771 4 8 4.44772 8 5V9.5C8 9.83435 8.1671 10.1466 8.4453 10.3321L11.4453 12.3321C11.9048 12.6384 12.5257 12.5142 12.8321 12.0547C13.1384 11.5952 13.0142 10.9743 12.5547 10.6679L10 8.96482V5Z" fill="#363C40" fill-opacity="0.6"/>
</svg>
