<svg width="36" height="29" viewBox="0 0 36 29" fill="none" xmlns="http://www.w3.org/2000/svg">
<path d="M35.4333 4.00008C34.15 4.58341 32.7667 4.96675 31.3333 5.15008C32.8 4.26675 33.9333 2.86675 34.4667 1.18341C33.0834 2.01675 31.55 2.60008 29.9333 2.93341C28.6167 1.50008 26.7667 0.666748 24.6667 0.666748C20.75 0.666748 17.55 3.86675 17.55 7.81675C17.55 8.38341 17.6167 8.93342 17.7333 9.45008C11.8 9.15008 6.51668 6.30008 3.00001 1.98341C2.38335 3.03341 2.03335 4.26675 2.03335 5.56675C2.03335 8.05008 3.28335 10.2501 5.21668 11.5001C4.03335 11.5001 2.93335 11.1667 1.96668 10.6667C1.96668 10.6667 1.96668 10.6667 1.96668 10.7167C1.96668 14.1834 4.43335 17.0834 7.70002 17.7334C7.10001 17.9001 6.46668 17.9834 5.81668 17.9834C5.36668 17.9834 4.91668 17.9334 4.48335 17.8501C5.38335 20.6667 8.00001 22.7667 11.15 22.8167C8.71668 24.7501 5.63335 25.8834 2.26668 25.8834C1.70001 25.8834 1.13335 25.8501 0.566681 25.7834C3.73335 27.8167 7.50001 29.0001 11.5333 29.0001C24.6667 29.0001 31.8834 18.1001 31.8834 8.65008C31.8834 8.33341 31.8833 8.03341 31.8667 7.71675C33.2667 6.71675 34.4667 5.45008 35.4333 4.00008Z" fill="#003FE2"/>
</svg>
